<?xml version="1.0" encoding="UTF-8" standalone="no"?>
<svg
   id="master-artboard"
   viewBox="0 0 512 512"
   width="512px"
   height="512px"
   version="1.1"
   sodipodi:docname="PTO-Logo-512x512.svg"
   inkscape:version="1.3.2 (091e20e, 2023-11-25)"
   inkscape:export-filename="PTO-Logo-512x512.png"
   inkscape:export-xdpi="96"
   inkscape:export-ydpi="96"
   xmlns:inkscape="http://www.inkscape.org/namespaces/inkscape"
   xmlns:sodipodi="http://sodipodi.sourceforge.net/DTD/sodipodi-0.dtd"
   xmlns:xlink="http://www.w3.org/1999/xlink"
   xmlns="http://www.w3.org/2000/svg"
   xmlns:svg="http://www.w3.org/2000/svg">
  <sodipodi:namedview
     id="namedview57"
     pagecolor="#ffffff"
     bordercolor="#000000"
     borderopacity="0.25"
     inkscape:showpageshadow="2"
     inkscape:pageopacity="0.0"
     inkscape:pagecheckerboard="0"
     inkscape:deskcolor="#d1d1d1"
     inkscape:zoom="0.4609375"
     inkscape:cx="256"
     inkscape:cy="256"
     inkscape:window-width="2560"
     inkscape:window-height="1387"
     inkscape:window-x="1440"
     inkscape:window-y="25"
     inkscape:window-maximized="1"
     inkscape:current-layer="master-artboard" />
  <defs
     id="defs50">
    <style
       id="ee-google-fonts">@import url(https://fonts.googleapis.com/css?family=Ek+Mukta:200,300,400,500,600,700,800);</style>
    <radialGradient
       id="radial-gradient-6"
       cx="148.71"
       cy="707.87"
       r="59.6"
       xlink:href="#radial-gradient-2" />
    <radialGradient
       id="radial-gradient-2"
       cx="148.71"
       cy="175.62"
       r="59.6"
       gradientUnits="userSpaceOnUse">
      <stop
         offset="0"
         stop-color="#e5e2df"
         id="stop1" />
      <stop
         offset="0"
         stop-color="#d6d4d1"
         id="stop2" />
      <stop
         offset="0"
         stop-color="#afadac"
         id="stop3" />
      <stop
         offset="0"
         stop-color="#717170"
         id="stop4" />
      <stop
         offset="0"
         stop-color="#666"
         id="stop5" />
      <stop
         offset="0.26"
         stop-color="#575757"
         id="stop6" />
      <stop
         offset="0.4"
         stop-color="#4d4d4d"
         id="stop7" />
      <stop
         offset="0.48"
         stop-color="#414141"
         id="stop8" />
      <stop
         offset="0.66"
         stop-color="#2b2b2b"
         id="stop9" />
      <stop
         offset="0.84"
         stop-color="#1e1e1e"
         id="stop10" />
      <stop
         offset="1"
         stop-color="#1a1a1a"
         id="stop11" />
    </radialGradient>
    <radialGradient
       id="gradient-2"
       gradientUnits="userSpaceOnUse"
       cx="148.71"
       cy="707.87"
       r="68.72"
       fx="148.71"
       fy="707.87">
      <stop
         offset="0"
         style="stop-color: #000000"
         id="stop12" />
      <stop
         offset="1"
         style="stop-color: #000000"
         id="stop13" />
    </radialGradient>
    <linearGradient
       id="linear-gradient-7"
       x1="109.51"
       y1="748.46"
       x2="182.75"
       y2="672.62"
       xlink:href="#linear-gradient" />
    <linearGradient
       id="linear-gradient"
       x1="109.51"
       y1="216.21"
       x2="182.75"
       y2="140.37"
       gradientUnits="userSpaceOnUse">
      <stop
         offset="0"
         stop-color="#e5e2df"
         id="stop14" />
      <stop
         offset="0"
         stop-color="#d6d4d1"
         id="stop15" />
      <stop
         offset="0"
         stop-color="#afadac"
         id="stop16" />
      <stop
         offset="0"
         stop-color="#717170"
         id="stop17" />
      <stop
         offset="0"
         stop-color="#666"
         id="stop18" />
      <stop
         offset="0.26"
         stop-color="#575757"
         id="stop19" />
      <stop
         offset="0.4"
         stop-color="#4d4d4d"
         id="stop20" />
      <stop
         offset="0.52"
         stop-color="#444"
         id="stop21" />
      <stop
         offset="0.77"
         stop-color="#373737"
         id="stop22" />
      <stop
         offset="1"
         stop-color="#333"
         id="stop23" />
    </linearGradient>
    <linearGradient
       id="linear-gradient-8"
       x1="373.17"
       y1="-907.55"
       x2="423.11"
       y2="-727.39"
       gradientTransform="rotate(90,-504.185,-187.975)"
       xlink:href="#linear-gradient-2" />
    <linearGradient
       id="linear-gradient-2"
       x1="-43.32"
       y1="-1238.95"
       x2="6.61"
       y2="-1058.78"
       gradientTransform="translate(-1023.56 200.46) rotate(90)"
       gradientUnits="userSpaceOnUse">
      <stop
         offset="0"
         stop-color="#e5e2df"
         id="stop24" />
      <stop
         offset="0"
         stop-color="#d6d4d1"
         id="stop25" />
      <stop
         offset="0"
         stop-color="#afafae"
         id="stop26" />
      <stop
         offset="0"
         stop-color="#999"
         id="stop27" />
      <stop
         offset="0.03"
         stop-color="#8d8d8d"
         id="stop28" />
      <stop
         offset="0.13"
         stop-color="#717171"
         id="stop29" />
      <stop
         offset="0.22"
         stop-color="#5d5d5d"
         id="stop30" />
      <stop
         offset="0.31"
         stop-color="#515151"
         id="stop31" />
      <stop
         offset="0.4"
         stop-color="#4d4d4d"
         id="stop32" />
      <stop
         offset="0.48"
         stop-color="#414141"
         id="stop33" />
      <stop
         offset="0.66"
         stop-color="#2b2b2b"
         id="stop34" />
      <stop
         offset="0.84"
         stop-color="#1e1e1e"
         id="stop35" />
      <stop
         offset="1"
         stop-color="#1a1a1a"
         id="stop36" />
    </linearGradient>
    <linearGradient
       id="linear-gradient-9"
       x1="427.85"
       y1="-894.23"
       x2="369.44"
       y2="-808.12"
       gradientTransform="rotate(90,-504.185,-187.975)"
       xlink:href="#linear-gradient-3" />
    <linearGradient
       id="linear-gradient-3"
       x1="11.35"
       y1="-1225.63"
       x2="-47.06"
       y2="-1139.52"
       gradientTransform="translate(-1023.56 200.46) rotate(90)"
       gradientUnits="userSpaceOnUse">
      <stop
         offset="0"
         stop-color="#e5e2df"
         id="stop37" />
      <stop
         offset="0"
         stop-color="#d6d4d1"
         id="stop38" />
      <stop
         offset="0"
         stop-color="#afadac"
         id="stop39" />
      <stop
         offset="0"
         stop-color="#717170"
         id="stop40" />
      <stop
         offset="0"
         stop-color="#666"
         id="stop41" />
      <stop
         offset="0.26"
         stop-color="#575757"
         id="stop42" />
      <stop
         offset="0.4"
         stop-color="#4d4d4d"
         id="stop43" />
      <stop
         offset="0.51"
         stop-color="#444"
         id="stop44" />
      <stop
         offset="0.73"
         stop-color="#373737"
         id="stop45" />
      <stop
         offset="0.93"
         stop-color="#333"
         id="stop46" />
    </linearGradient>
    <radialGradient
       id="gradient-0"
       gradientUnits="userSpaceOnUse"
       cx="90.981304"
       cy="1427.2347"
       r="2.782409"
       gradientTransform="scale(2.0162384,0.49597309)"
       fx="90.981304"
       fy="1427.2347">
      <stop
         offset="0"
         style="stop-color: #ffad1f"
         id="stop47" />
      <stop
         offset="1"
         style="stop-color: #b87500"
         id="stop48" />
    </radialGradient>
    <linearGradient
       id="gradient-1"
       gradientUnits="userSpaceOnUse"
       x1="148.7073745727539"
       y1="639.1500244140625"
       x2="148.7073745727539"
       y2="756.4600219726562"
       gradientTransform="matrix(0.35137837,0.9362338,-1.1066397,0.4153331,868.19848,301.83139)">
      <stop
         offset="0"
         style="stop-color: #ff9900"
         id="stop49" />
      <stop
         offset="1"
         style="stop-color: #995c00"
         id="stop50" />
    </linearGradient>
    <filter
       style="color-interpolation-filters:sRGB;"
       inkscape:label="Drop Shadow"
       id="filter118"
       x="0"
       y="0"
       width="1.0052743"
       height="1.1369973">
      <feFlood
         result="flood"
         in="SourceGraphic"
         flood-opacity="0.505882"
         flood-color="rgb(0,0,0)"
         id="feFlood117" />
      <feGaussianBlur
         result="blur"
         in="SourceGraphic"
         stdDeviation="0.000000"
         id="feGaussianBlur117" />
      <feOffset
         result="offset"
         in="blur"
         dx="2.500000"
         dy="2.500000"
         id="feOffset117" />
      <feComposite
         result="comp1"
         operator="in"
         in="flood"
         in2="offset"
         id="feComposite117" />
      <feComposite
         result="comp2"
         operator="over"
         in="SourceGraphic"
         in2="comp1"
         id="feComposite118" />
    </filter>
  </defs>
  <rect
     id="ee-background"
     x="0"
     y="0"
     width="512"
     height="512"
     style="fill: white; fill-opacity: 0; pointer-events: none;" />
  <path
     d="m 17.740145,439.11093 h 7.377358 c 1.216816,0 2.322141,0.15608 3.315982,0.46827 0.993842,0.31217 1.850712,0.77084 2.57061,1.37606 0.726271,0.61161 1.286895,1.35699 1.681887,2.23617 0.394985,0.88554 0.592477,1.89849 0.592477,3.03885 0,1.24229 -0.210236,2.31579 -0.630703,3.22043 -0.420473,0.91102 -1.016137,1.66276 -1.787005,2.25524 -0.77086,0.59886 -1.6787,1.048 -2.723504,1.34742 -1.044805,0.29306 -2.201107,0.4396 -3.468885,0.4396 h -3.497559 v 9.09746 h -3.430658 v -23.4795 m 3.430658,11.59163 h 2.12147 c 0.91739,0 1.77426,-0.0637 2.57061,-0.19113 0.796342,-0.12103 1.474828,-0.34401 2.03546,-0.66892 0.560631,-0.3249 1.000213,-0.77722 1.318747,-1.35699 0.324914,-0.58609 0.487367,-1.32511 0.487367,-2.217 0,-0.82185 -0.156081,-1.51307 -0.46825,-2.0737 -0.312169,-0.55425 -0.716712,-1.0066 -1.213637,-1.35699 -0.496917,-0.3504 -1.067099,-0.59884 -1.710547,-0.74538 -0.643454,-0.14652 -1.302824,-0.21977 -1.978132,-0.21977 h -3.163088 z m 19.242028,11.88787 V 445.074 h 2.465492 l 0.554259,3.50709 c 0.426838,-1.12126 1.124441,-2.02908 2.092794,-2.72351 0.968361,-0.6944 2.08643,-1.04162 3.354215,-1.04162 0.643448,0 1.175404,0.0478 1.595878,0.14334 0.426845,0.10195 0.812272,0.22619 1.156295,0.3727 l -0.630703,2.87642 c -0.299425,-0.1529 -0.627525,-0.27714 -0.984284,-0.37271 -0.363139,-0.10192 -0.793163,-0.1529 -1.290088,-0.1529 -0.719891,0 -1.38564,0.12424 -1.997234,0.37271 -0.605222,0.24844 -1.137186,0.62114 -1.595877,1.11805 -0.458699,0.49694 -0.818645,1.1117 -1.079852,1.84436 -0.261199,0.73264 -0.391798,1.57038 -0.391798,2.51325 v 9.05925 z m 32.540136,-8.94455 c 0,1.46527 -0.222967,2.77446 -0.668929,3.92756 -0.445947,1.15947 -1.060735,2.1374 -1.844332,2.93375 -0.783613,0.78997 -1.697817,1.39202 -2.742614,1.8061 -1.044812,0.40773 -2.175625,0.61161 -3.392441,0.61161 -1.216815,0 -2.341264,-0.19113 -3.373331,-0.57337 -1.03206,-0.38863 -1.92397,-0.96198 -2.675721,-1.7201 -0.758124,-0.75813 -1.356974,-1.68828 -1.796563,-2.79041 -0.433211,-1.10852 -0.64982,-2.38266 -0.64982,-3.82247 0,-1.46527 0.222981,-2.7681 0.668936,-3.90847 0.445955,-1.14675 1.060735,-2.1119 1.84434,-2.89551 0.783605,-0.78361 1.697809,-1.37927 2.742614,-1.787 1.044811,-0.40773 2.175617,-0.61161 3.392447,-0.61161 1.216816,0 2.341257,0.18475 3.373325,0.55428 1.032052,0.37585 1.927155,0.93648 2.685279,1.68186 0.758124,0.74538 1.35378,1.66915 1.786997,2.77131 0.433218,1.10849 0.649813,2.38265 0.649813,3.82247 m -3.430659,0.1911 c 0,-1.17221 -0.149709,-2.16924 -0.449141,-2.99108 -0.293045,-0.81546 -0.681673,-1.48437 -1.165853,-2.0068 -0.484166,-0.5224 -1.038425,-0.90146 -1.662763,-1.13716 -0.617966,-0.23572 -1.251855,-0.3536 -1.901681,-0.3536 -0.64344,0 -1.277344,0.0987 -1.901675,0.29624 -0.617966,0.19752 -1.162667,0.54471 -1.634103,1.04165 -0.471436,0.49691 -0.850498,1.16264 -1.137185,1.99723 -0.286681,0.83456 -0.430025,1.88574 -0.430025,3.15352 0,1.16585 0.149716,2.16288 0.449141,2.99109 0.293053,0.83456 0.684859,1.51306 1.175404,2.03546 0.48418,0.5224 1.035253,0.90782 1.653212,1.15629 0.624338,0.24847 1.258227,0.3727 1.901682,0.3727 0.643454,0 1.277343,-0.10513 1.901681,-0.31537 0.617966,-0.21023 1.16266,-0.57016 1.634096,-1.07985 0.477808,-0.50965 0.85687,-1.18177 1.137185,-2.01633 0.286688,-0.83459 0.430025,-1.88257 0.430025,-3.14399 z m 21.690575,-17.70757 h 3.277757 v 26.46102 h -2.75218 l -0.410908,-1.9399 h -0.114669 c -0.770868,0.79636 -1.548108,1.37609 -2.331706,1.73923 -0.783612,0.35675 -1.771074,0.53514 -2.962416,0.53514 -0.942872,0 -1.853898,-0.18475 -2.733063,-0.55427 -0.885537,-0.37586 -1.675507,-0.93649 -2.369924,-1.68187 -0.694417,-0.74538 -1.255048,-1.68189 -1.681894,-2.80951 -0.420459,-1.13401 -0.630696,-2.47187 -0.630696,-4.0136 0,-1.36335 0.18157,-2.60564 0.544694,-3.7269 0.356767,-1.11487 0.872793,-2.07049 1.548108,-2.86685 0.668929,-0.79635 1.487566,-1.40475 2.455926,-1.82523 0.968361,-0.42047 2.073686,-0.63071 3.31599,-0.63071 0.917398,0 1.79337,0.14334 2.627945,0.43004 0.834574,0.28032 1.573582,0.70715 2.217036,1.28052 v -10.39711 m 0,13.15883 c -1.165853,-1.31873 -2.545136,-1.9781 -4.13782,-1.9781 -0.668943,0 -1.321948,0.11784 -1.959016,0.35357 -0.63071,0.23572 -1.188148,0.61479 -1.672328,1.13718 -0.484181,0.5224 -0.875987,1.19452 -1.175404,2.01634 -0.299432,0.81546 -0.449141,1.79656 -0.449141,2.94332 0,1.19131 0.136964,2.20429 0.410908,3.03885 0.273943,0.8282 0.640261,1.50986 1.098967,2.045 0.458692,0.53517 0.98109,0.92695 1.56721,1.17542 0.586106,0.24847 1.175404,0.3727 1.767882,0.3727 1.866642,0 3.382889,-0.8091 4.548742,-2.42727 z M 114.64222,445.074 h 3.27776 v 17.51643 h -2.57061 l -0.44913,-2.19791 h -0.1529 c -0.64346,0.7199 -1.44299,1.32194 -2.39861,1.8061 -0.95561,0.4842 -2.06731,0.72628 -3.33509,0.72628 -1.81568,0 -3.28732,-0.51604 -4.41496,-1.54809 -1.13399,-1.03208 -1.70099,-2.58974 -1.70099,-4.67298 V 445.074 h 3.27777 v 11.21892 c 0,0.74538 0.0956,1.37927 0.28669,1.90167 0.18475,0.5224 0.4332,0.93651 0.74538,1.24232 0.30579,0.31216 0.6721,0.53832 1.09895,0.67848 0.42047,0.13377 0.87917,0.20067 1.37609,0.20067 0.99383,0 1.88894,-0.21024 2.68528,-0.63071 0.79636,-0.42683 1.55447,-1.01295 2.27437,-1.75833 z m 19.80641,15.31852 c 0.79634,0 1.49076,-0.086 2.08323,-0.25803 0.59885,-0.17836 1.18497,-0.40455 1.75833,-0.67848 l 0.70716,2.46548 c -1.34422,0.66894 -2.94647,1.00341 -4.80674,1.00341 -1.2678,0 -2.45594,-0.18475 -3.56445,-0.55427 -1.10214,-0.37586 -2.0705,-0.94287 -2.90508,-1.701 -0.83457,-0.75812 -1.48758,-1.70099 -1.95902,-2.82861 -0.47143,-1.13401 -0.70714,-2.45912 -0.70714,-3.97537 0,-1.38884 0.22296,-2.64069 0.66893,-3.75557 0.44594,-1.12126 1.0671,-2.0737 1.86344,-2.85728 0.79635,-0.78361 1.75516,-1.38565 2.8764,-1.80613 1.11489,-0.42047 2.34445,-0.63071 3.68868,-0.63071 0.77087,0 1.52262,0.0542 2.25526,0.16247 0.73265,0.11467 1.5704,0.38224 2.51327,0.80271 l -0.74538,2.49415 c -1.14036,-0.64343 -2.36992,-0.96515 -3.68867,-0.96515 -1.81567,0 -3.28095,0.56381 -4.39585,1.69143 -1.12124,1.134 -1.68187,2.72033 -1.68187,4.75898 0,1.26777 0.17519,2.32214 0.52559,3.16308 0.34402,0.84731 0.80271,1.52579 1.37609,2.03547 0.57336,0.50965 1.21999,0.87597 1.9399,1.09895 0.71989,0.22298 1.45254,0.33447 2.19792,0.33447 z m 20.49847,-12.86261 h -5.15077 v 10.17733 c 0,0.8728 0.2198,1.45571 0.65938,1.74877 0.43322,0.29942 0.99703,0.44914 1.69144,0.44914 0.49693,0 1.04482,-0.0542 1.64367,-0.16247 0.59247,-0.11467 1.11169,-0.24526 1.55765,-0.3918 l 0.52558,2.49417 c -0.49691,0.19749 -1.13081,0.37268 -1.90167,0.52558 -0.77086,0.14654 -1.57677,0.2198 -2.4177,0.2198 -1.73923,0 -3.00701,-0.37906 -3.80337,-1.13719 -0.79634,-0.75812 -1.19452,-1.85707 -1.19452,-3.29688 v -10.62645 h -2.60883 V 445.074 h 2.60883 v -5.59036 h 3.23954 v 5.59036 h 5.15077 z m 7.9751,15.06052 V 445.074 h 3.27777 v 17.51643 h -3.27777 m 1.63411,-22.02694 c -0.567,0 -1.05755,-0.19114 -1.47165,-0.57338 -0.40773,-0.38863 -0.6116,-0.86961 -0.6116,-1.44299 0,-0.56699 0.20387,-1.05118 0.6116,-1.45252 0.4141,-0.39499 0.90465,-0.59248 1.47165,-0.59248 0.54789,0 1.03207,0.19749 1.45253,0.59248 0.42684,0.40134 0.64027,0.88553 0.64027,1.45252 0,0.57338 -0.21343,1.05436 -0.64027,1.44299 -0.42046,0.38224 -0.90464,0.57338 -1.45253,0.57338 z m 26.52168,13.08239 c 0,1.46527 -0.22298,2.77446 -0.66895,3.92756 -0.44596,1.15947 -1.06072,2.1374 -1.84433,2.93375 -0.78361,0.78997 -1.69781,1.39202 -2.74261,1.8061 -1.04481,0.40773 -2.17563,0.61161 -3.39244,0.61161 -1.21682,0 -2.34126,-0.19113 -3.37333,-0.57337 -1.03206,-0.38863 -1.92397,-0.96198 -2.67572,-1.7201 -0.75813,-0.75813 -1.35698,-1.68828 -1.79657,-2.79041 -0.4332,-1.10852 -0.64981,-2.38266 -0.64981,-3.82247 0,-1.46527 0.22297,-2.7681 0.66893,-3.90847 0.44595,-1.14675 1.06073,-2.1119 1.84433,-2.89551 0.78361,-0.78361 1.69782,-1.37927 2.74263,-1.787 1.0448,-0.40773 2.17561,-0.61161 3.39243,-0.61161 1.21683,0 2.34127,0.18475 3.37332,0.55428 1.03208,0.37585 1.92716,0.93648 2.68528,1.68186 0.75812,0.74538 1.35381,1.66915 1.78703,2.77131 0.43318,1.10849 0.64981,2.38265 0.64981,3.82247 m -3.43066,0.1911 c 0,-1.17221 -0.14972,-2.16924 -0.44914,-2.99108 -0.29306,-0.81546 -0.68169,-1.48437 -1.16585,-2.0068 -0.4842,-0.5224 -1.03844,-0.90146 -1.66278,-1.13716 -0.61797,-0.23572 -1.25186,-0.3536 -1.90168,-0.3536 -0.64344,0 -1.27735,0.0987 -1.90167,0.29624 -0.61797,0.19752 -1.16268,0.54471 -1.63411,1.04165 -0.47144,0.49691 -0.8505,1.16264 -1.13719,1.99723 -0.28668,0.83456 -0.43002,1.88574 -0.43002,3.15352 0,1.16585 0.14971,2.16288 0.44914,2.99109 0.29306,0.83456 0.68485,1.51306 1.1754,2.03546 0.48418,0.5224 1.03525,0.90782 1.65322,1.15629 0.62433,0.24847 1.25824,0.3727 1.90168,0.3727 0.64345,0 1.27734,-0.10513 1.90168,-0.31537 0.61796,-0.21023 1.16267,-0.57016 1.63409,-1.07985 0.47781,-0.50965 0.85687,-1.18177 1.13719,-2.01633 0.28667,-0.83459 0.43004,-1.88257 0.43004,-3.14399 z m 13.81368,8.75345 h -3.27776 V 445.074 h 2.57061 l 0.48738,2.42724 c 0.8664,-0.87279 1.78061,-1.53853 2.74261,-1.99723 0.95562,-0.45868 2.05457,-0.68805 3.29689,-0.68805 1.79018,0 3.19175,0.5033 4.20471,1.50989 1.0193,1.00657 1.52899,2.40179 1.52899,4.18558 v 12.079 h -3.27779 V 450.9988 c 0,-1.07029 -0.28031,-1.9208 -0.84095,-2.55148 -0.55424,-0.63071 -1.40472,-0.94608 -2.55147,-0.94608 -1.73923,0 -3.36697,0.78043 -4.88322,2.34127 z m 46.78244,-23.4795 v 2.90508 h -7.33912 v 20.57442 h -3.43066 v -20.57442 h -7.19579 v -2.90508 z m 20.36255,14.53495 c 0,1.46527 -0.22298,2.77446 -0.66891,3.92756 -0.44597,1.15947 -1.06075,2.1374 -1.84437,2.93375 -0.78358,0.78997 -1.69778,1.39202 -2.74261,1.8061 -1.0448,0.40773 -2.17562,0.61161 -3.39242,0.61161 -1.21684,0 -2.34128,-0.19113 -3.37333,-0.57337 -1.03208,-0.38863 -1.92398,-0.96198 -2.67574,-1.7201 -0.75813,-0.75813 -1.35696,-1.68828 -1.79654,-2.79041 -0.43321,-1.10852 -0.64984,-2.38266 -0.64984,-3.82247 0,-1.46527 0.22298,-2.7681 0.66895,-3.90847 0.44596,-1.14675 1.06072,-2.1119 1.84433,-2.89551 0.78361,-0.78361 1.69782,-1.37927 2.74261,-1.787 1.04483,-0.40773 2.17563,-0.61161 3.39246,-0.61161 1.2168,0 2.34124,0.18475 3.37332,0.55428 1.03205,0.37585 1.92716,0.93648 2.68528,1.68186 0.75812,0.74538 1.35378,1.66915 1.787,2.77131 0.43322,1.10849 0.64981,2.38265 0.64981,3.82247 m -3.43066,0.1911 c 0,-1.17221 -0.14972,-2.16924 -0.44914,-2.99108 -0.29306,-0.81546 -0.68166,-1.48437 -1.16585,-2.0068 -0.48417,-0.5224 -1.03844,-0.90146 -1.66277,-1.13716 -0.61796,-0.23572 -1.25185,-0.3536 -1.90166,-0.3536 -0.64346,0 -1.27735,0.0987 -1.9017,0.29624 -0.61796,0.19752 -1.16264,0.54471 -1.63409,1.04165 -0.47145,0.49691 -0.85052,1.16264 -1.13719,1.99723 -0.28667,0.83456 -0.43004,1.88574 -0.43004,3.15352 0,1.16585 0.14972,2.16288 0.44914,2.99109 0.29306,0.83456 0.68487,1.51306 1.17542,2.03546 0.4842,0.5224 1.03526,0.90782 1.65323,1.15629 0.62432,0.24847 1.25821,0.3727 1.90166,0.3727 0.64346,0 1.27735,-0.10513 1.90167,-0.31537 0.61797,-0.21023 1.16268,-0.57016 1.63413,-1.07985 0.4778,-0.50965 0.85687,-1.18177 1.13718,-2.01633 0.28667,-0.83459 0.43001,-1.88257 0.43001,-3.14399 z m 25.43605,-0.1911 c 0,1.46527 -0.22298,2.77446 -0.66891,3.92756 -0.44596,1.15947 -1.06075,2.1374 -1.84436,2.93375 -0.78359,0.78997 -1.69779,1.39202 -2.74262,1.8061 -1.04479,0.40773 -2.17562,0.61161 -3.39242,0.61161 -1.21683,0 -2.34128,-0.19113 -3.37333,-0.57337 -1.03208,-0.38863 -1.92397,-0.96198 -2.67574,-1.7201 -0.75812,-0.75813 -1.35696,-1.68828 -1.79654,-2.79041 -0.43321,-1.10852 -0.64984,-2.38266 -0.64984,-3.82247 0,-1.46527 0.22298,-2.7681 0.66895,-3.90847 0.44596,-1.14675 1.06072,-2.1119 1.84433,-2.89551 0.78361,-0.78361 1.69782,-1.37927 2.74261,-1.787 1.04483,-0.40773 2.17563,-0.61161 3.39246,-0.61161 1.2168,0 2.34124,0.18475 3.37332,0.55428 1.03206,0.37585 1.92716,0.93648 2.68528,1.68186 0.75813,0.74538 1.35378,1.66915 1.787,2.77131 0.43322,1.10849 0.64981,2.38265 0.64981,3.82247 m -3.43066,0.1911 c 0,-1.17221 -0.14969,-2.16924 -0.44914,-2.99108 -0.29306,-0.81546 -0.68166,-1.48437 -1.16585,-2.0068 -0.48417,-0.5224 -1.03844,-0.90146 -1.66276,-1.13716 -0.61797,-0.23572 -1.25186,-0.3536 -1.90167,-0.3536 -0.64346,0 -1.27734,0.0987 -1.9017,0.29624 -0.61796,0.19752 -1.16264,0.54471 -1.63409,1.04165 -0.47145,0.49691 -0.85052,1.16264 -1.13719,1.99723 -0.28667,0.83456 -0.43004,1.88574 -0.43004,3.15352 0,1.16585 0.14973,2.16288 0.44914,2.99109 0.29306,0.83456 0.68487,1.51306 1.17542,2.03546 0.4842,0.5224 1.03526,0.90782 1.65323,1.15629 0.62432,0.24847 1.25821,0.3727 1.90167,0.3727 0.64345,0 1.27734,-0.10513 1.90166,-0.31537 0.61797,-0.21023 1.16268,-0.57016 1.63413,-1.07985 0.47781,-0.50965 0.85687,-1.18177 1.13718,-2.01633 0.28668,-0.83459 0.43001,-1.88257 0.43001,-3.14399 z m 10.68886,8.75345 v -26.46102 h 3.20132 v 26.46102 z m 33.05552,-23.81397 c 1.58633,0 3.0516,0.25486 4.39584,0.76451 1.33786,0.50966 2.49735,1.26778 3.47846,2.27437 0.98107,1.00657 1.74558,2.26163 2.29347,3.76513 0.54789,1.50351 0.82182,3.25863 0.82182,5.26543 0,1.96857 -0.28668,3.70461 -0.86005,5.20812 -0.56699,1.49711 -1.34742,2.75536 -2.34124,3.77466 -0.99385,1.01934 -2.16927,1.79021 -3.52623,2.31261 -1.35699,0.5224 -2.82865,0.78361 -4.41497,0.78361 -1.59269,0 -3.05796,-0.25483 -4.39581,-0.76451 -1.34425,-0.50965 -2.50692,-1.26778 -3.48803,-2.27434 -0.98107,-1.00659 -1.74558,-2.26163 -2.29347,-3.76513 -0.54789,-1.5035 -0.82182,-3.26184 -0.82182,-5.27502 0,-1.96218 0.28668,-3.69505 0.86005,-5.19856 0.57338,-1.5035 1.35696,-2.76171 2.35081,-3.77466 0.99385,-1.01934 2.16606,-1.79021 3.51666,-2.31261 1.35699,-0.5224 2.83183,-0.78361 4.42451,-0.78361 m -7.42513,12.06944 c 0,1.59271 0.19432,2.97198 0.58291,4.13783 0.38227,1.17221 0.91103,2.14375 1.58633,2.91462 0.66894,0.76451 1.45573,1.33468 2.36037,1.71056 0.91103,0.3695 1.87621,0.55425 2.89552,0.55425 1.01295,0 1.96221,-0.18475 2.84775,-0.55425 0.87918,-0.37588 1.65002,-0.94605 2.3126,-1.71056 0.65617,-0.77087 1.17221,-1.74241 1.54809,-2.91462 0.3695,-1.16585 0.55425,-2.54512 0.55425,-4.13783 0,-1.63728 -0.19111,-3.03885 -0.57338,-4.20471 -0.38859,-1.16585 -0.91738,-2.12782 -1.58632,-2.88595 -0.66892,-0.75812 -1.45889,-1.31875 -2.36991,-1.68189 -0.90467,-0.36314 -1.86664,-0.54471 -2.88598,-0.54471 -1.01931,0 -1.97493,0.18796 -2.86685,0.56381 -0.89828,0.37588 -1.66912,0.94608 -2.31258,1.71056 -0.64981,0.77087 -1.15949,1.74241 -1.52899,2.91465 -0.37588,1.16582 -0.56381,2.54191 -0.56381,4.12824 z m 25.58962,11.74453 V 445.074 h 2.46548 l 0.55428,3.50709 c 0.42683,-1.12126 1.12444,-2.02908 2.0928,-2.72351 0.96833,-0.6944 2.08641,-1.04162 3.35419,-1.04162 0.64346,0 1.17542,0.0478 1.59589,0.14334 0.42683,0.10195 0.81228,0.22619 1.15629,0.3727 l -0.63071,2.87642 c -0.29942,-0.1529 -0.6275,-0.27714 -0.98428,-0.37271 -0.36314,-0.10192 -0.79315,-0.1529 -1.29009,-0.1529 -0.71989,0 -1.38563,0.12424 -1.99724,0.37271 -0.60522,0.24844 -1.13718,0.62114 -1.59586,1.11805 -0.4587,0.49694 -0.81867,1.1117 -1.07985,1.84436 -0.26121,0.73264 -0.39181,1.57038 -0.39181,2.51325 v 9.05925 z m 16.49946,-11.7063 c 0,-0.96836 0.17201,-1.83159 0.51604,-2.58971 0.35037,-0.75812 0.84413,-1.39522 1.4812,-1.91123 0.63071,-0.5224 1.38244,-0.91421 2.25524,-1.17542 0.86643,-0.26119 1.8093,-0.39181 2.82864,-0.39181 0.3695,0 0.72946,0.0255 1.07985,0.0765 0.3504,0.0446 0.69758,0.1051 1.04162,0.18157 h 7.56847 v 2.42724 h -1.15629 l -2.98152,-0.41091 c 0.47142,0.49691 0.83774,1.06711 1.09895,1.71056 0.26122,0.64346 0.39181,1.32512 0.39181,2.04501 0,0.97475 -0.17521,1.84115 -0.52561,2.59928 -0.34401,0.75812 -0.82817,1.39522 -1.45252,1.91123 -0.61797,0.5224 -1.36335,0.9142 -2.23614,1.17542 -0.86644,0.26118 -1.80931,0.3918 -2.82862,0.3918 -0.77087,0 -1.44299,-0.0478 -2.01636,-0.14333 -0.56699,0.19749 -0.96516,0.45232 -1.19452,0.76448 -0.22298,0.3058 -0.33448,0.63389 -0.33448,0.98428 0,0.57338 0.19432,0.9588 0.58295,1.15629 0.38224,0.19749 0.89828,0.29624 1.54809,0.29624 h 4.61564 c 1.93669,0 3.4211,0.4396 4.45315,1.31875 1.03208,0.88554 1.54812,2.08645 1.54812,3.60269 0,0.96834 -0.21024,1.83795 -0.63071,2.60882 -0.42047,0.77087 -1.02252,1.42706 -1.80613,1.96856 -0.78361,0.54789 -1.73602,0.96519 -2.85728,1.25186 -1.11491,0.2867 -2.36676,0.43004 -3.75557,0.43004 -2.53558,0 -4.55513,-0.45232 -6.05863,-1.35699 -1.5035,-0.911 -2.25524,-2.24888 -2.25524,-4.01357 0,-0.91738 0.28988,-1.68507 0.86962,-2.30304 0.58612,-0.62435 1.3506,-1.09895 2.29347,-1.42386 -0.49691,-0.34403 -0.86962,-0.71035 -1.11806,-1.09898 -0.24847,-0.38224 -0.3727,-0.89507 -0.3727,-1.53853 0,-0.77087 0.22934,-1.43024 0.68804,-1.97813 0.46507,-0.54789 1.0926,-0.98428 1.88257,-1.30919 -0.99385,-0.44596 -1.7679,-1.09577 -2.32214,-1.94947 -0.56063,-0.86004 -0.84095,-1.96218 -0.84095,-3.30642 m 3.98491,11.7063 c -1.26778,0.57338 -1.90167,1.46845 -1.90167,2.68528 0,2.18519 1.76472,3.27776 5.29412,3.27776 1.0448,0 1.92716,-0.0987 2.64705,-0.29624 0.71989,-0.1975 1.30283,-0.45868 1.74879,-0.78362 0.44593,-0.3249 0.77723,-0.68483 0.99382,-1.07982 0.21024,-0.40137 0.31537,-0.81228 0.31537,-1.23275 0,-1.0448 -0.35357,-1.73284 -1.06075,-2.06413 -0.70715,-0.33766 -1.59586,-0.50648 -2.66615,-0.50648 h -5.37058 m 6.82311,-11.62986 c 0,-1.31237 -0.34083,-2.28073 -1.02252,-2.90505 -0.68804,-0.61797 -1.5895,-0.92695 -2.70438,-0.92695 -1.12126,0 -2.02272,0.30898 -2.70441,0.92695 -0.68166,0.62432 -1.02249,1.54491 -1.02249,2.76171 0,1.28691 0.34083,2.23614 1.02249,2.84775 0.68169,0.61158 1.58315,0.91738 2.70441,0.91738 1.11488,0 2.01634,-0.29942 2.70438,-0.89828 0.68169,-0.59884 1.02252,-1.50668 1.02252,-2.72351 z m 12.63573,-4.31938 c 0.59247,-0.29942 1.14993,-0.56699 1.67232,-0.80271 0.5224,-0.23573 1.0448,-0.43004 1.5672,-0.58294 0.5224,-0.14652 1.05757,-0.25801 1.60546,-0.33445 0.54788,-0.0701 1.14354,-0.10513 1.787,-0.10513 0.96836,0 1.85707,0.10513 2.66614,0.31537 0.8091,0.21024 1.50351,0.56381 2.08327,1.06072 0.58609,0.49691 1.03844,1.14993 1.35696,1.95903 0.3249,0.80272 0.48737,1.81567 0.48737,3.03886 v 11.40049 h -2.71395 l -0.4109,-1.9399 h -0.0765 c -0.77087,0.82182 -1.61499,1.40476 -2.53238,1.74876 -0.92377,0.3504 -1.94307,0.52561 -3.05798,0.52561 -0.8473,0 -1.62453,-0.11788 -2.33171,-0.35357 -0.70714,-0.23573 -1.32193,-0.5702 -1.84433,-1.00342 -0.5224,-0.43321 -0.92695,-0.96197 -1.21362,-1.58632 -0.2867,-0.62433 -0.43004,-1.31873 -0.43004,-2.08324 0,-1.84115 0.72946,-3.23952 2.18837,-4.19514 1.45253,-0.95562 3.37015,-1.43342 5.7528,-1.43342 h 3.35422 v -1.49076 c 0,-1.26781 -0.32173,-2.13104 -0.96518,-2.58974 -0.64981,-0.45868 -1.51943,-0.68805 -2.60881,-0.68805 -0.64984,0 -1.38884,0.10513 -2.21704,0.31537 -0.83459,0.21024 -1.787,0.61158 -2.85728,1.20406 l -1.26142,-2.37948 m 9.94796,7.86473 -2.76174,0.0764 c -1.86026,0.0446 -3.18219,0.37271 -3.9658,0.98428 -0.78361,0.60523 -1.17542,1.34425 -1.17542,2.21704 0,0.5224 0.086,0.96198 0.25803,1.31876 0.17837,0.36314 0.41091,0.64345 0.69759,0.84094 0.28031,0.1975 0.61478,0.34083 1.00341,0.43001 0.38224,0.0892 0.78679,0.1338 1.21362,0.1338 0.81546,0 1.64684,-0.19431 2.49418,-0.58294 0.8473,-0.38224 1.59268,-0.99703 2.23613,-1.84433 z m 14.04816,8.08451 h -3.27776 V 445.074 h 2.57061 l 0.48738,2.42724 c 0.8664,-0.87279 1.78061,-1.53853 2.74261,-1.99723 0.95562,-0.45868 2.05457,-0.68805 3.29689,-0.68805 1.79017,0 3.19175,0.5033 4.2047,1.50989 1.01931,1.00657 1.52899,2.40179 1.52899,4.18558 v 12.079 h -3.27778 V 450.9988 c 0,-1.07029 -0.28032,-1.9208 -0.84095,-2.55148 -0.55424,-0.63071 -1.40473,-0.94608 -2.55148,-0.94608 -1.73923,0 -3.36696,0.78043 -4.88321,2.34127 z m 20.6013,0 V 445.074 h 3.27776 v 17.51643 h -3.27776 m 1.63407,-22.02694 c -0.56699,0 -1.05751,-0.19114 -1.47163,-0.57338 -0.4077,-0.38863 -0.61161,-0.86961 -0.61161,-1.44299 0,-0.56699 0.20391,-1.05118 0.61161,-1.45252 0.41412,-0.39499 0.90464,-0.59248 1.47163,-0.59248 0.54792,0 1.03208,0.19749 1.45255,0.59248 0.42684,0.40134 0.64025,0.88553 0.64025,1.45252 0,0.57338 -0.21341,1.05436 -0.64025,1.44299 -0.42047,0.38224 -0.90463,0.57338 -1.45255,0.57338 z m 22.16407,6.41217 -9.27906,13.15883 h 9.46063 v 2.45594 h -13.49336 v -2.01634 l 9.28862,-13.04418 h -8.64831 V 445.074 h 12.67148 z m 20.95887,7.22446 H 465.8304 v 0.1529 c 0,1.93672 0.52878,3.42748 1.58635,4.47228 1.05116,1.0448 2.48458,1.56722 4.30028,1.56722 0.94284,0 1.78064,-0.0765 2.51327,-0.22936 0.73264,-0.14652 1.53532,-0.39181 2.40812,-0.73582 l 0.66894,2.41771 c -0.71992,0.32491 -1.57037,0.58612 -2.55148,0.78361 -0.9811,0.1975 -2.03232,0.29624 -3.15352,0.29624 -1.26784,0 -2.45279,-0.17521 -3.55492,-0.52561 -1.10849,-0.344 -2.08324,-0.88232 -2.92419,-1.61499 -0.8473,-0.73263 -1.51304,-1.67233 -1.9972,-2.81905 -0.48423,-1.14036 -0.72628,-2.50689 -0.72628,-4.0996 0,-1.36335 0.20385,-2.60564 0.61155,-3.7269 0.41412,-1.11487 0.99388,-2.06413 1.73923,-2.84775 0.74541,-0.78358 1.64684,-1.39201 2.70441,-1.82523 1.05115,-0.43318 2.23617,-0.64981 3.55492,-0.64981 1.12121,0 2.13416,0.18475 3.03885,0.55428 0.90464,0.37585 1.68184,0.89828 2.33171,1.56719 0.6434,0.66894 1.14033,1.47484 1.49076,2.41771 0.34401,0.94926 0.51601,1.99405 0.51601,3.13442 v 1.71056 m -3.39243,-2.34127 c 0,-0.64981 -0.0797,-1.25186 -0.2389,-1.8061 -0.15929,-0.56063 -0.40776,-1.05118 -0.74541,-1.47166 -0.33765,-0.42683 -0.76769,-0.76448 -1.29006,-1.01295 -0.51601,-0.24847 -1.14675,-0.37267 -1.8921,-0.37267 -1.36973,0 -2.48464,0.43639 -3.34466,1.30919 -0.85372,0.8664 -1.37929,2.00997 -1.57679,3.43065 z m 9.89003,10.73158 V 445.074 h 2.4655 l 0.55422,3.50709 c 0.42689,-1.12126 1.12447,-2.02908 2.0928,-2.72351 0.96839,-0.6944 2.08644,-1.04162 3.35422,-1.04162 0.64346,0 1.17539,0.0478 1.59586,0.14334 0.42689,0.10195 0.81231,0.22619 1.15632,0.3727 l -0.63068,2.87642 c -0.29945,-0.1529 -0.62753,-0.27714 -0.98431,-0.37271 -0.36314,-0.10192 -0.79318,-0.1529 -1.29006,-0.1529 -0.71992,0 -1.38566,0.12424 -1.99726,0.37271 -0.6052,0.24844 -1.13719,0.62114 -1.59587,1.11805 -0.45867,0.49694 -0.81866,1.1117 -1.07985,1.84436 -0.26118,0.73264 -0.39183,1.57038 -0.39183,2.51325 v 9.05925 z"
     style="color:#09000a;white-space:pre;display:none;fill:#09000a;stroke:#fafffa;stroke-width:8.60055;stroke-opacity:0.52;paint-order:stroke"
     id="path50" />
  <g
     transform="matrix(2.9382653,0,0,2.9382653,-123.36019,-235.71486)"
     id="g57">
    <path
       d="M 208.31,707.87 A 59.599998,59.599998 0 0 1 148.71001,767.46999 59.599998,59.599998 0 0 1 89.110008,707.87 59.599998,59.599998 0 0 1 148.71001,648.27 59.599998,59.599998 0 0 1 208.31,707.87 Z"
       class="cls-15"
       style="fill:url(#radial-gradient-6)"
       transform="rotate(-43.832756,-549.01852,455.45395)"
       id="path51" />
    <path
       class="cls-16"
       d="m 148.71,639.15 a 68.72,68.72 0 1 0 68.72,68.72 68.72,68.72 0 0 0 -68.72,-68.72 z m 0,130.82 a 62.1,62.1 0 1 1 62.1,-62.1 62.1,62.1 0 0 1 -62.1,62.13 z"
       style="fill:url(#gradient-2);fill-opacity:0.79;stroke-opacity:1"
       transform="rotate(-43.832756,-549.01852,455.45395)"
       id="path52" />
    <path
       d="M 201.72,707.87 A 53.009998,53.009998 0 0 1 148.71001,760.87999 53.009998,53.009998 0 0 1 95.700008,707.87 53.009998,53.009998 0 0 1 148.71001,654.86 53.009998,53.009998 0 0 1 201.72,707.87 Z"
       class="cls-17"
       style="fill:url(#linear-gradient-7)"
       transform="rotate(-43.832756,-549.01852,455.45395)"
       id="path53" />
    <path
       d="m 197.26001,707.87 a 48.549999,48.549999 0 0 1 -48.55,48.54999 48.549999,48.549999 0 0 1 -48.55,-48.54999 48.549999,48.549999 0 0 1 48.55,-48.55 48.549999,48.549999 0 0 1 48.55,48.55 z"
       class="cls-18"
       transform="rotate(-82.342745,-177.57065,442.29317)"
       style="fill:url(#linear-gradient-8)"
       id="path54" />
    <path
       d="m 196.16001,707.87 a 47.450001,47.450001 0 0 1 -47.45,47.45 47.450001,47.450001 0 0 1 -47.45,-47.45 47.450001,47.450001 0 0 1 47.45,-47.45001 47.450001,47.450001 0 0 1 47.45,47.45001 z"
       class="cls-19"
       transform="rotate(-82.342745,-177.57065,442.29317)"
       style="fill:url(#linear-gradient-9)"
       id="path55" />
    <path
       d="m 179.21,706.48999 h 8.46 a 1.38,1.38 0 0 1 1.38,1.38 v 0 a 1.38,1.38 0 0 1 -1.38,1.38 h -8.46 a 1.38,1.38 0 0 1 -1.38,-1.38 v 0 a 1.38,1.38 0 0 1 1.38,-1.38 z"
       class="cls-7"
       style="fill:url(#gradient-0)"
       transform="matrix(2.8948994,-2.7792864,2.7792864,2.8948994,-2352.6184,-1399.5504)"
       id="path56" />
    <path
       class="cls-20"
       d="m 148.71,639.15 a 68.72,68.72 0 0 0 -48.59,117.31 l 4.68,-4.68 a 62.1,62.1 0 1 1 106,-43.91 h 6.62 a 68.72,68.72 0 0 0 -68.71,-68.72 z"
       style="fill:url(#gradient-1);fill-opacity:1"
       transform="rotate(-43.832756,-549.01852,455.45395)"
       id="path57" />
  </g>
  <text
     xml:space="preserve"
     style="font-size:24.4291px;line-height:normal;font-family:'Good Times';-inkscape-font-specification:'Good Times, Normal';text-decoration-color:#000000;text-anchor:middle;white-space:pre;fill:#d88200;fill-opacity:1;stroke:#da870b;stroke-width:0.77724;stroke-dasharray:none;stroke-opacity:1;paint-order:markers stroke fill;filter:url(#filter118)"
     x="255.26712"
     y="462.95789"
     id="text57"
     transform="matrix(1.2866034,0,0,1.2866034,-73.948421,-139.41372)"><tspan
       sodipodi:role="line"
       id="tspan57"
       x="255.26712"
       y="462.95789"
       style="fill:#d88200;fill-opacity:1;stroke:#da870b;stroke-width:0.77724;stroke-dasharray:none;stroke-opacity:1">Production Tool</tspan><tspan
       sodipodi:role="line"
       x="255.26712"
       y="493.49426"
       style="fill:#d88200;fill-opacity:1;stroke:#da870b;stroke-width:0.77724;stroke-dasharray:none;stroke-opacity:1"
       id="tspan118">Organizer</tspan></text>
</svg>
